KRSPY-parametric-NarrowBlackMinGrade-minXOPQmaxYOPQmaxXTRA.ufo
<glyph name="comma" format="2">
  <advance width="169"/>
  <unicode hex="002C"/>
  <outline>
    <contour>
      <point x="137" y="-269" type="line"/>
      <point x="137" y="0" type="line"/>
      <point x="137" y="266" type="line"/>
      <point x="135" y="266" type="line"/>
      <point x="135" y="202" type="line"/>
      <point x="135" y="0" type="line"/>
      <point x="135" y="0" type="line"/>
      <point x="135" y="-269" type="line"/>
    </contour>
  </outline>
</glyph>
<glyph name="one" format="2">
  <advance width="282"/>
  <unicode hex="0031"/>
  <outline>
    <contour>
      <point x="31" y="0" type="line"/>
      <point x="254" y="0" type="line" identifier="CURJAw79Zl"/>
      <point x="254" y="276" type="line" identifier="0DUCJo8xIi"/>
      <point x="144" y="276" type="line" identifier="5nmxQXofSG"/>
      <point x="144" y="1600" type="line" identifier="4rjIeWbSbx"/>
      <point x="28" y="1600" type="line"/>
      <point x="28" y="1324" type="line"/>
      <point x="142" y="1324" type="line"/>
      <point x="142" y="276" type="line"/>
      <point x="31" y="276" type="line"/>
    </contour>
  </outline>
</glyph>
<glyph name="three" format="2">
  <advance width="274"/>
  <unicode hex="0033"/>
  <outline>
    <contour>
      <point x="28" y="0" type="line" identifier="O9abUc1nmN"/>
      <point x="242" y="0" type="line" identifier="kMJYMTfXCq"/>
      <point x="242" y="921" type="line" identifier="su2XmdS8e8"/>
      <point x="171" y="921" type="line" identifier="JQaOzDQqlF"/>
      <point x="171" y="920" type="line"/>
      <point x="234" y="1002" type="line" identifier="S91TzLL02W"/>
      <point x="234" y="1600" type="line" identifier="xg8x2Ki40p"/>
      <point x="30" y="1600" type="line" identifier="pE1XSRiy68"/>
      <point x="30" y="1207" type="line" identifier="5lNstGRcSF"/>
      <point x="32" y="1207" type="line" identifier="AcE5xKDZfE"/>
      <point x="32" y="1325" type="line" identifier="7ogBYufWpl"/>
      <point x="232" y="1325" type="line" identifier="RHLvSX2Jv6"/>
      <point x="232" y="1007" type="line" identifier="YUjTrmoWd9"/>
      <point x="172" y="926" type="line"/>
      <point x="172" y="925" type="line" identifier="iic1IBkDqp"/>
      <point x="68" y="925" type="line" identifier="lRLJEhXMlO"/>
      <point x="68" y="649" type="line" identifier="8aKgEELrVU"/>
      <point x="240" y="649" type="line" identifier="Dm8zjmbhNr"/>
      <point x="240" y="275" type="line" identifier="xv9CFHiFgB"/>
      <point x="30" y="275" type="line" identifier="YajKQV3MHP"/>
      <point x="30" y="340" type="line" identifier="36SchVkwze"/>
      <point x="28" y="340" type="line" identifier="tVui9PiOjA"/>
    </contour>
  </outline>
</glyph>
<glyph name="four" format="2">
  <advance width="289"/>
  <unicode hex="0034"/>
  <outline>
    <contour>
      <point x="214" y="0" type="line"/>
      <point x="216" y="0" type="line"/>
      <point x="216" y="678" type="line"/>
      <point x="258" y="678" type="line"/>
      <point x="258" y="915" type="line"/>
      <point x="216" y="915" type="line"/>
      <point x="216" y="1600" type="line"/>
      <point x="214" y="1600" type="line"/>
      <point x="214" y="915" type="line"/>
      <point x="32" y="915" type="line"/>
      <point x="32" y="980" type="line"/>
      <point x="89" y="1679" type="line"/>
      <point x="88" y="1679" type="line"/>
      <point x="30" y="979" type="line"/>
      <point x="30" y="678" type="line"/>
      <point x="214" y="678" type="line"/>
    </contour>
  </outline>
</glyph>
<glyph name="A" format="2">
  <advance width="287"/>
  <unicode hex="0041"/>
  <outline>
    <contour>
      <point x="34" y="0" type="line" smooth="yes" identifier="jFq8ta4UUc"/>
      <point x="36" y="0" type="line" smooth="yes" identifier="dQz4RxYhG4"/>
      <point x="36" y="599" type="line" smooth="yes" identifier="viYRWe5UN7"/>
      <point x="245" y="599" type="line" smooth="yes" identifier="QVexAlbAcl"/>
      <point x="245" y="0" type="line" smooth="yes" identifier="ZgsCdxNJRW"/>
      <point x="247" y="0" type="line" smooth="yes" identifier="kpn4Kw9J0C"/>
      <point x="247" y="1600" type="line" smooth="yes" identifier="OBZ5Ayed7M"/>
      <point x="103" y="1600" type="line" smooth="yes" identifier="iDT0uyhKrn"/>
      <point x="34" y="1207" type="line" smooth="yes" identifier="dqVr87m3uJ"/>
    </contour>
    <contour>
      <point x="36" y="837" type="line" smooth="yes" identifier="IIRC9Wy7kQ"/>
      <point x="36" y="1204" type="line" smooth="yes" identifier="VufvPdJ075"/>
      <point x="74" y="1363" type="line" smooth="yes" identifier="FsYtJ2vFnp"/>
      <point x="245" y="1363" type="line" smooth="yes" identifier="tUsW8L7b0y"/>
      <point x="245" y="837" type="line" smooth="yes" identifier="eTe9B4y76W"/>
    </contour>
  </outline>
</glyph>
<glyph name="B" format="2">
  <advance width="284"/>
  <unicode hex="0042"/>
  <outline>
    <contour>
      <point x="38" y="0" type="line" identifier="hvY9r8RmLr"/>
      <point x="253" y="0" type="line" identifier="9QFpw7nfq7"/>
      <point x="253" y="753" type="line" identifier="543PerILpr"/>
      <point x="207" y="797" type="line" identifier="zhomauHW30"/>
      <point x="207" y="799" type="line" identifier="870ZhtaozS"/>
      <point x="247" y="847" type="line" identifier="eGKH52Jgnk"/>
      <point x="247" y="1600" type="line" identifier="FaP204GrdB"/>
      <point x="38" y="1600" type="line" identifier="JEev70GAj6"/>
    </contour>
    <contour>
      <point x="40" y="935" type="line" identifier="By7dfMihfe"/>
      <point x="40" y="1325" type="line" identifier="1p5hKrurVy"/>
      <point x="245" y="1325" type="line" identifier="Qby8aMtF2X"/>
      <point x="245" y="983" type="line" identifier="9lW01gQyU2"/>
      <point x="208" y="935" type="line" identifier="xpxyvIzPoc"/>
    </contour>
    <contour>
      <point x="40" y="275" type="line" identifier="jaMSiLrCua"/>
      <point x="40" y="659" type="line" identifier="XSrxNd2axx"/>
      <point x="205" y="659" type="line" identifier="VyYlzRh5nq"/>
      <point x="251" y="615" type="line" identifier="lsRGatjQja"/>
      <point x="251" y="275" type="line" identifier="xhlDJ3CjD5"/>
    </contour>
  </outline>
</glyph>
<glyph name="C" format="2">
  <advance width="274"/>
  <unicode hex="0043"/>
  <outline>
    <contour>
      <point x="34" y="0" type="line" identifier="7lPhzTnk2Z"/>
      <point x="244" y="0" type="line" identifier="qJVLZGnkwh"/>
      <point x="244" y="477" type="line" identifier="nDnDHzAMXL"/>
      <point x="242" y="477" type="line" identifier="QX1V08aTu0"/>
      <point x="242" y="237" type="line" identifier="Y750RHTvDj"/>
      <point x="36" y="237" type="line" identifier="L2LsGnXiZ2"/>
      <point x="36" y="1124" type="line" identifier="sUWsr03vF4"/>
      <point x="75" y="1363" type="line" identifier="dbOUe6OhxL"/>
      <point x="241" y="1363" type="line" identifier="5BjRbcud80"/>
      <point x="241" y="955" type="line" identifier="fNVDqwQo2o"/>
      <point x="243" y="955" type="line" identifier="wLqQQx7QVN"/>
      <point x="243" y="1600" type="line" identifier="9eJelv8BOw"/>
      <point x="94" y="1600" type="line" identifier="lfZev3ICaC"/>
      <point x="34" y="1129" type="line" identifier="V1EWIdPahq"/>
    </contour>
  </outline>
</glyph>
<glyph name="S" format="2">
  <advance width="268"/>
  <unicode hex="0053"/>
  <outline>
    <contour>
      <point x="32" y="0" type="line" identifier="09VlJ0BjUX"/>
      <point x="236" y="0" type="line" identifier="EagWihqFM8"/>
      <point x="236" y="911" type="line" identifier="KfNuQA7eZe"/>
      <point x="33" y="911" type="line" identifier="At364YZFEy"/>
      <point x="33" y="1170" type="line"/>
      <point x="62" y="1364" type="line"/>
      <point x="236" y="1364" type="line" identifier="3ZUkG35meB"/>
      <point x="236" y="1105" type="line" identifier="DTOJhFIl15"/>
      <point x="238" y="1105" type="line" identifier="9KDcrfQ5Ui"/>
      <point x="238" y="1600" type="line" identifier="SaF9ojRFrW"/>
      <point x="84" y="1600" type="line"/>
      <point x="31" y="1170" type="line"/>
      <point x="31" y="674" type="line" identifier="3sQ8t8BZ6b"/>
      <point x="234" y="674" type="line" identifier="yiV6OCBLHg"/>
      <point x="234" y="236" type="line" identifier="9kdl9SYsn8"/>
      <point x="34" y="236" type="line" identifier="yZDWuX8LLe"/>
      <point x="34" y="436" type="line" identifier="jYb9001DTm"/>
      <point x="32" y="436" type="line" identifier="ho4DrS0rdW"/>
    </contour>
  </outline>
</glyph>
<glyph name="U" format="2">
  <advance width="284"/>
  <unicode hex="0055"/>
  <outline>
    <contour>
      <point x="245" y="1600" type="line" smooth="yes"/>
      <point x="245" y="276" type="line"/>
      <point x="64" y="276" type="line" smooth="yes"/>
      <point x="34" y="432" type="line" smooth="yes"/>
      <point x="34" y="1600" type="line"/>
      <point x="32" y="1600" type="line" smooth="yes"/>
      <point x="32" y="427" type="line" smooth="yes"/>
      <point x="97" y="0" type="line" smooth="yes"/>
      <point x="247" y="0" type="line" smooth="yes"/>
      <point x="247" y="1600" type="line" smooth="yes"/>
    </contour>
  </outline>
</glyph>
<glyph name="Z" format="2">
  <advance width="279"/>
  <unicode hex="005A"/>
  <outline>
    <contour>
      <point x="28" y="0" type="line"/>
      <point x="243" y="0" type="line" identifier="pzdvPTirLJ"/>
      <point x="243" y="586" type="line" identifier="91SxUS0iwG"/>
      <point x="241" y="586" type="line"/>
      <point x="241" y="275" type="line"/>
      <point x="30" y="275" type="line"/>
      <point x="30" y="444" type="line"/>
      <point x="249" y="1244" type="line" identifier="yyb1NCCI5w"/>
      <point x="249" y="1600" type="line" identifier="5FogYRSgkk"/>
      <point x="31" y="1600" type="line" identifier="svlFvrau4c"/>
      <point x="31" y="1056" type="line" identifier="LQ9fBsTy9K"/>
      <point x="33" y="1056" type="line"/>
      <point x="33" y="1325" type="line"/>
      <point x="247" y="1325" type="line"/>
      <point x="247" y="1250" type="line"/>
      <point x="28" y="453" type="line" identifier="teVKnpBcVb"/>
    </contour>
  </outline>
</glyph>
<glyph name="B.narrow" format="2">
  <advance width="290"/>
  <outline>
    <contour>
      <point x="40" y="0" type="line" identifier="hvY9r8RmLr"/>
      <point x="255" y="0" type="line" identifier="9QFpw7nfq7"/>
      <point x="255" y="730" type="line" identifier="543PerILpr"/>
      <point x="215" y="767" type="line" identifier="870ZhtaozS"/>
      <point x="249" y="782" type="line" identifier="eGKH52Jgnk"/>
      <point x="249" y="1600" type="line" identifier="FaP204GrdB"/>
      <point x="40" y="1600" type="line" identifier="JEev70GAj6"/>
    </contour>
    <contour>
      <point x="42" y="900" type="line" identifier="By7dfMihfe"/>
      <point x="42" y="1364" type="line" identifier="1p5hKrurVy"/>
      <point x="247" y="1364" type="line" identifier="Qby8aMtF2X"/>
      <point x="247" y="947" type="line" identifier="9lW01gQyU2"/>
    </contour>
    <contour>
      <point x="42" y="236" type="line" identifier="jaMSiLrCua"/>
      <point x="42" y="693" type="line" identifier="XSrxNd2axx"/>
      <point x="186" y="717" type="line" identifier="VyYlzRh5nq"/>
      <point x="253" y="635" type="line" identifier="lsRGatjQja"/>
      <point x="253" y="236" type="line" identifier="xhlDJ3CjD5"/>
    </contour>
  </outline>
</glyph>
<glyph name="F.wide" format="2">
  <advance width="262"/>
  <outline>
    <contour>
      <point x="38" y="0" type="line" identifier="oAgH2tA6DJ"/>
      <point x="40" y="0" type="line" identifier="zCZyMcW5ho"/>
      <point x="40" y="509" type="line" identifier="yHYqkMd7LI"/>
      <point x="225" y="509" type="line" identifier="NmB7yyQuio"/>
      <point x="225" y="785" type="line" identifier="wQk2C8zPHh"/>
      <point x="40" y="785" type="line" identifier="4cFHKQfHDt"/>
      <point x="40" y="1324" type="line" identifier="ZvzwyrcwpS"/>
      <point x="234" y="1324" type="line" identifier="4E754ovOIe"/>
      <point x="234" y="1600" type="line" identifier="NUrIjqOB7J"/>
      <point x="38" y="1600" type="line" identifier="TBAYuCfUFX"/>
    </contour>
  </outline>
</glyph>
<glyph name="G.wide" format="2">
  <advance width="261"/>
  <outline>
    <contour>
      <point x="32" y="0" type="line" identifier="7lPhzTnk2Z"/>
      <point x="247" y="0" type="line" identifier="qJVLZGnkwh"/>
      <point x="247" y="886" type="line" identifier="uek1NNj7De"/>
      <point x="164" y="886" type="line" identifier="qcvimxjndX"/>
      <point x="164" y="662" type="line" identifier="EARaY3Su65"/>
      <point x="245" y="662" type="line" identifier="4m6dHLVhZq"/>
      <point x="245" y="275" type="line" identifier="Y750RHTvDj"/>
      <point x="34" y="275" type="line" identifier="L2LsGnXiZ2"/>
      <point x="34" y="1143" type="line" identifier="sUWsr03vF4"/>
      <point x="66" y="1325" type="line" identifier="dbOUe6OhxL"/>
      <point x="246" y="1325" type="line" identifier="5BjRbcud80"/>
      <point x="246" y="1600" type="line" identifier="9eJelv8BOw"/>
      <point x="91" y="1600" type="line" identifier="lfZev3ICaC"/>
      <point x="32" y="1148" type="line" identifier="V1EWIdPahq"/>
    </contour>
  </outline>
</glyph>
<glyph name="I.narrow" format="2">
  <advance width="72"/>
  <outline>
    <contour>
      <point x="37" y="1" type="line" identifier="1m237t4hyw"/>
      <point x="37" y="1599" type="line" identifier="v7N4yg5XNk"/>
      <point x="35" y="1599" type="line" identifier="zfocDyDTCM"/>
      <point x="35" y="1" type="line" identifier="S4rO5KuHiL"/>
    </contour>
  </outline>
</glyph>
<glyph name="K.alt" format="2">
  <advance width="259"/>
  <outline>
    <contour>
      <point x="28" y="0" type="line" identifier="wmNm7XZsaF"/>
      <point x="28" y="696" type="line" identifier="O22liaP9Qk"/>
      <point x="185" y="696" type="line" identifier="ELFBWIb1vd"/>
      <point x="238" y="661" type="line" identifier="DzXo67YEfw"/>
      <point x="238" y="0" type="line" identifier="aKpYWD78l2"/>
      <point x="240" y="0" type="line" identifier="ChS7KlqGi6"/>
      <point x="240" y="828" type="line" identifier="sWLgkU8Vey"/>
      <point x="188" y="862" type="line" identifier="Of0iQc0wBG"/>
      <point x="230" y="1600" type="line" identifier="dMJ1ywOKQQ"/>
      <point x="228" y="1600" type="line" identifier="08OWjR2YBJ"/>
      <point x="190" y="933" type="line" identifier="g4YLdZEoM3"/>
      <point x="28" y="933" type="line" identifier="uZuki3Isec"/>
      <point x="28" y="1600" type="line" identifier="nRfcNgqJ4H"/>
      <point x="26" y="1600" type="line" identifier="3XJlWt89ad"/>
      <point x="26" y="0" type="line" identifier="wdbO8kCovY"/>
    </contour>
  </outline>
</glyph>
<glyph name="K.narrow" format="2">
  <advance width="309"/>
  <outline>
    <contour>
      <point x="42" y="0" type="line"/>
      <point x="42" y="687" type="line"/>
      <point x="210" y="714" type="line"/>
      <point x="273" y="0" type="line"/>
      <point x="275" y="0" type="line"/>
      <point x="200" y="835" type="line"/>
      <point x="250" y="857" type="line"/>
      <point x="250" y="1600" type="line"/>
      <point x="248" y="1600" type="line"/>
      <point x="248" y="967" type="line"/>
      <point x="42" y="924" type="line"/>
      <point x="42" y="1600" type="line"/>
      <point x="40" y="1600" type="line"/>
      <point x="40" y="0" type="line"/>
    </contour>
  </outline>
</glyph>
<glyph name="N.narrow" format="2">
  <advance width="272"/>
  <outline>
    <contour>
      <point x="40" y="2" type="line" smooth="yes"/>
      <point x="42" y="2" type="line"/>
      <point x="42" y="1157" type="line"/>
      <point x="84" y="1314" type="line"/>
      <point x="230" y="1314" type="line"/>
      <point x="230" y="0" type="line" smooth="yes"/>
      <point x="232" y="0" type="line" smooth="yes"/>
      <point x="232" y="1600" type="line" smooth="yes"/>
      <point x="87" y="1600" type="line" smooth="yes"/>
      <point x="46" y="1501" type="line"/>
      <point x="42" y="1501" type="line"/>
      <point x="42" y="1600" type="line"/>
      <point x="40" y="1600" type="line"/>
    </contour>
  </outline>
</glyph>
<glyph name="N.wide" format="2">
  <advance width="298"/>
  <outline>
    <contour>
      <point x="38" y="0" type="line" identifier="CkwYPPvJLv"/>
      <point x="40" y="0" type="line" identifier="oHTJsN7drZ"/>
      <point x="40" y="1224" type="line" identifier="wfBbYd10Pm"/>
      <point x="54" y="1224" type="line" identifier="MEnBDHq6zU"/>
      <point x="250" y="0" type="line" identifier="3Nbopwznvn"/>
      <point x="260" y="0" type="line" identifier="uKfuudIUvA"/>
      <point x="260" y="1600" type="line" identifier="XRdLFXiM4t"/>
      <point x="258" y="1600" type="line" identifier="MUSJPjCIXg"/>
      <point x="258" y="376" type="line" identifier="VILP20cFmq"/>
      <point x="248" y="376" type="line" identifier="z5b04GDwRN"/>
      <point x="55" y="1600" type="line" identifier="LL64NQ6WBE"/>
      <point x="38" y="1600" type="line" identifier="dzUaaP1sjt"/>
    </contour>
  </outline>
</glyph>
<glyph name="R.alt" format="2">
  <advance width="279"/>
  <outline>
    <contour>
      <point x="35" y="877" type="line"/>
      <point x="35" y="1322" type="line"/>
      <point x="244" y="1322" type="line"/>
      <point x="244" y="877" type="line"/>
    </contour>
    <contour>
      <point x="258" y="0" type="line"/>
      <point x="199" y="674" type="line"/>
      <point x="247" y="708" type="line"/>
      <point x="246" y="1600" type="line"/>
      <point x="33" y="1600" type="line"/>
      <point x="33" y="0" type="line"/>
      <point x="35" y="0" type="line"/>
      <point x="35" y="602" type="line"/>
      <point x="205" y="602" type="line"/>
      <point x="256" y="0" type="line"/>
    </contour>
  </outline>
</glyph>
<glyph name="S.wide" format="2">
  <advance width="260"/>
  <outline>
    <contour>
      <point x="30" y="0" type="line" identifier="09VlJ0BjUX"/>
      <point x="232" y="0" type="line" identifier="EagWihqFM8"/>
      <point x="232" y="921" type="line" identifier="KfNuQA7eZe"/>
      <point x="30" y="921" type="line" identifier="At364YZFEy"/>
      <point x="30" y="1152" type="line"/>
      <point x="54" y="1325" type="line"/>
      <point x="232" y="1325" type="line" identifier="3ZUkG35meB"/>
      <point x="232" y="1600" type="line" identifier="SaF9ojRFrW"/>
      <point x="80" y="1600" type="line"/>
      <point x="28" y="1152" type="line"/>
      <point x="28" y="679" type="line" identifier="3sQ8t8BZ6b"/>
      <point x="230" y="679" type="line" identifier="yiV6OCBLHg"/>
      <point x="230" y="275" type="line" identifier="9kdl9SYsn8"/>
      <point x="30" y="275" type="line" identifier="yZDWuX8LLe"/>
    </contour>
  </outline>
</glyph>
<glyph name="Y.alt" format="2">
  <advance width="279"/>
  <outline>
    <contour>
      <point x="33" y="275" type="line"/>
      <point x="33" y="0" type="line"/>
      <point x="242" y="0" type="line" identifier="oOtn61SmRY"/>
      <point x="242" y="1600" type="line" identifier="8OglXgblhr"/>
      <point x="240" y="1600" type="line" identifier="db0bPhBdaU"/>
      <point x="240" y="939" type="line" identifier="MTAeavIVWY"/>
      <point x="32" y="939" type="line" identifier="lggLiivmLt"/>
      <point x="32" y="1600" type="line" identifier="UPaHY3UudR"/>
      <point x="30" y="1600" type="line" identifier="ZnCDQVdtyD"/>
      <point x="30" y="664" type="line" identifier="uqAJBjDIOT"/>
      <point x="240" y="664" type="line" identifier="7JgTtdb0jg"/>
      <point x="240" y="275" type="line"/>
    </contour>
  </outline>
</glyph>
<glyph name="Z.wide" format="2">
  <advance width="284"/>
  <outline>
    <contour>
      <point x="31" y="0" type="line"/>
      <point x="247" y="0" type="line" identifier="pzdvPTirLJ"/>
      <point x="247" y="236" type="line"/>
      <point x="33" y="236" type="line"/>
      <point x="33" y="418" type="line"/>
      <point x="251" y="1300" type="line" identifier="yyb1NCCI5w"/>
      <point x="251" y="1600" type="line" identifier="5FogYRSgkk"/>
      <point x="33" y="1600" type="line" identifier="svlFvrau4c"/>
      <point x="33" y="1364" type="line"/>
      <point x="247" y="1364" type="line"/>
      <point x="247" y="1293" type="line"/>
      <point x="31" y="423" type="line" identifier="teVKnpBcVb"/>
    </contour>
  </outline>
</glyph>
<glyph name="five.wide" format="2">
  <advance width="270"/>
  <outline>
    <contour>
      <point x="32" y="0" type="line" identifier="09VlJ0BjUX"/>
      <point x="239" y="0" type="line" identifier="EagWihqFM8"/>
      <point x="239" y="894" type="line" identifier="KfNuQA7eZe"/>
      <point x="32" y="935" type="line" identifier="At364YZFEy"/>
      <point x="32" y="1362" type="line" identifier="BcuLfvaQKC"/>
      <point x="239" y="1362" type="line" identifier="3ZUkG35meB"/>
      <point x="239" y="1600" type="line" identifier="SaF9ojRFrW"/>
      <point x="30" y="1600" type="line" identifier="F4sQEYelA8"/>
      <point x="30" y="731" type="line" identifier="3sQ8t8BZ6b"/>
      <point x="237" y="690" type="line" identifier="yiV6OCBLHg"/>
      <point x="237" y="238" type="line" identifier="9kdl9SYsn8"/>
      <point x="32" y="238" type="line" identifier="yZDWuX8LLe"/>
    </contour>
  </outline>
</glyph>
<glyph name="one.narrow" format="2">
  <advance width="186"/>
  <outline>
    <contour>
      <point x="146" y="0" type="line" identifier="5nmxQXofSG"/>
      <point x="146" y="1600" type="line" identifier="4rjIeWbSbx"/>
      <point x="30" y="1600" type="line"/>
      <point x="30" y="1363" type="line"/>
      <point x="144" y="1363" type="line"/>
      <point x="144" y="0" type="line"/>
    </contour>
  </outline>
</glyph>
<glyph name="six.wide" format="2">
  <advance width="246"/>
  <outline>
    <contour>
      <point x="15" y="0" type="line" identifier="uiw6aBUf4P"/>
      <point x="229" y="0" type="line" identifier="jtYkxiUX6G"/>
      <point x="229" y="869" type="line" identifier="2G5L37c87I"/>
      <point x="17" y="869" type="line"/>
      <point x="17" y="1231" type="line"/>
      <point x="49" y="1364" type="line"/>
      <point x="229" y="1364" type="line"/>
      <point x="229" y="1600" type="line" identifier="oGvEEuxnYv"/>
      <point x="68" y="1600" type="line" identifier="xR3pEHbMJx"/>
      <point x="15" y="1237" type="line" identifier="KnMArb0tv8"/>
    </contour>
    <contour>
      <point x="227" y="672" type="line"/>
      <point x="227" y="236" type="line"/>
      <point x="17" y="236" type="line"/>
      <point x="17" y="672" type="line"/>
    </contour>
  </outline>
</glyph>
<glyph name="three.wide" format="2">
  <advance width="280"/>
  <outline>
    <contour>
      <point x="28" y="0" type="line" identifier="O9abUc1nmN"/>
      <point x="242" y="0" type="line" identifier="kMJYMTfXCq"/>
      <point x="242" y="870" type="line" identifier="su2XmdS8e8"/>
      <point x="171" y="870" type="line" identifier="JQaOzDQqlF"/>
      <point x="171" y="869" type="line"/>
      <point x="234" y="948" type="line" identifier="S91TzLL02W"/>
      <point x="234" y="1600" type="line" identifier="xg8x2Ki40p"/>
      <point x="30" y="1600" type="line" identifier="pE1XSRiy68"/>
      <point x="30" y="1317" type="line" identifier="7ogBYufWpl"/>
      <point x="232" y="1317" type="line" identifier="RHLvSX2Jv6"/>
      <point x="232" y="952" type="line" identifier="YUjTrmoWd9"/>
      <point x="172" y="873" type="line"/>
      <point x="172" y="871" type="line" identifier="iic1IBkDqp"/>
      <point x="62" y="871" type="line" identifier="lRLJEhXMlO"/>
      <point x="62" y="702" type="line" identifier="8aKgEELrVU"/>
      <point x="240" y="702" type="line" identifier="Dm8zjmbhNr"/>
      <point x="240" y="277" type="line" identifier="xv9CFHiFgB"/>
      <point x="28" y="277" type="line" identifier="YajKQV3MHP"/>
    </contour>
  </outline>
</glyph>
